<svg xmlns:xlink="http://www.w3.org/1999/xlink" width="100ex" height="27.509ex" style="font-size: 15px; vertical-align: -23.171ex; max-width: 600;" viewBox="0 -1867.7 43055.4 11844.2" role="img" focusable="false" xmlns="http://www.w3.org/2000/svg">
<defs>
<path stroke-width="1" id="E1-MJMATHI-3C5" d="M413 384Q413 406 432 424T473 443Q492 443 507 425T523 367Q523 334 508 270T468 153Q424 63 373 27T282 -10H268Q220 -10 186 2T135 36T111 78T104 121Q104 170 138 262T173 379Q173 380 173 381Q173 390 173 393T169 400T158 404H154Q131 404 112 385T82 344T65 302T57 280Q55 278 41 278H27Q21 284 21 287Q21 299 34 333T82 404T161 441Q200 441 225 419T250 355Q248 336 247 334Q247 331 232 291T201 199T185 118Q185 68 211 47T275 26Q317 26 355 57T416 132T452 216T465 277Q465 301 457 318T439 343T421 361T413 384Z"></path>
<path stroke-width="1" id="E1-MJMATHI-6B" d="M121 647Q121 657 125 670T137 683Q138 683 209 688T282 694Q294 694 294 686Q294 679 244 477Q194 279 194 272Q213 282 223 291Q247 309 292 354T362 415Q402 442 438 442Q468 442 485 423T503 369Q503 344 496 327T477 302T456 291T438 288Q418 288 406 299T394 328Q394 353 410 369T442 390L458 393Q446 405 434 405H430Q398 402 367 380T294 316T228 255Q230 254 243 252T267 246T293 238T320 224T342 206T359 180T365 147Q365 130 360 106T354 66Q354 26 381 26Q429 26 459 145Q461 153 479 153H483Q499 153 499 144Q499 139 496 130Q455 -11 378 -11Q333 -11 305 15T277 90Q277 108 280 121T283 145Q283 167 269 183T234 206T200 217T182 220H180Q168 178 159 139T145 81T136 44T129 20T122 7T111 -2Q98 -11 83 -11Q66 -11 57 -1T48 16Q48 26 85 176T158 471L195 616Q196 629 188 632T149 637H144Q134 637 131 637T124 640T121 647Z"></path>
<path stroke-width="1" id="E1-MJMAIN-28" d="M94 250Q94 319 104 381T127 488T164 576T202 643T244 695T277 729T302 750H315H319Q333 750 333 741Q333 738 316 720T275 667T226 581T184 443T167 250T184 58T225 -81T274 -167T316 -220T333 -241Q333 -250 318 -250H315H302L274 -226Q180 -141 137 -14T94 250Z"></path>
<path stroke-width="1" id="E1-MJMATHI-73" d="M131 289Q131 321 147 354T203 415T300 442Q362 442 390 415T419 355Q419 323 402 308T364 292Q351 292 340 300T328 326Q328 342 337 354T354 372T367 378Q368 378 368 379Q368 382 361 388T336 399T297 405Q249 405 227 379T204 326Q204 301 223 291T278 274T330 259Q396 230 396 163Q396 135 385 107T352 51T289 7T195 -10Q118 -10 86 19T53 87Q53 126 74 143T118 160Q133 160 146 151T160 120Q160 94 142 76T111 58Q109 57 108 57T107 55Q108 52 115 47T146 34T201 27Q237 27 263 38T301 66T318 97T323 122Q323 150 302 164T254 181T195 196T148 231Q131 256 131 289Z"></path>
<path stroke-width="1" id="E1-MJMAIN-29" d="M60 749L64 750Q69 750 74 750H86L114 726Q208 641 251 514T294 250Q294 182 284 119T261 12T224 -76T186 -143T145 -194T113 -227T90 -246Q87 -249 86 -250H74Q66 -250 63 -250T58 -247T55 -238Q56 -237 66 -225Q221 -64 221 250T66 725Q56 737 55 738Q55 746 60 749Z"></path>
<path stroke-width="1" id="E1-MJMAIN-3D" d="M56 347Q56 360 70 367H707Q722 359 722 347Q722 336 708 328L390 327H72Q56 332 56 347ZM56 153Q56 168 72 173H708Q722 163 722 153Q722 140 707 133H70Q56 140 56 153Z"></path>
<path stroke-width="1" id="E1-MJMAIN-31" d="M213 578L200 573Q186 568 160 563T102 556H83V602H102Q149 604 189 617T245 641T273 663Q275 666 285 666Q294 666 302 660V361L303 61Q310 54 315 52T339 48T401 46H427V0H416Q395 3 257 3Q121 3 100 0H88V46H114Q136 46 152 46T177 47T193 50T201 52T207 57T213 61V578Z"></path>
<path stroke-width="1" id="E1-MJSZ2-2211" d="M60 948Q63 950 665 950H1267L1325 815Q1384 677 1388 669H1348L1341 683Q1320 724 1285 761Q1235 809 1174 838T1033 881T882 898T699 902H574H543H251L259 891Q722 258 724 252Q725 250 724 246Q721 243 460 -56L196 -356Q196 -357 407 -357Q459 -357 548 -357T676 -358Q812 -358 896 -353T1063 -332T1204 -283T1307 -196Q1328 -170 1348 -124H1388Q1388 -125 1381 -145T1356 -210T1325 -294L1267 -449L666 -450Q64 -450 61 -448Q55 -446 55 -439Q55 -437 57 -433L590 177Q590 178 557 222T452 366T322 544L56 909L55 924Q55 945 60 948Z"></path>
<path stroke-width="1" id="E1-MJMATHI-6A" d="M297 596Q297 627 318 644T361 661Q378 661 389 651T403 623Q403 595 384 576T340 557Q322 557 310 567T297 596ZM288 376Q288 405 262 405Q240 405 220 393T185 362T161 325T144 293L137 279Q135 278 121 278H107Q101 284 101 286T105 299Q126 348 164 391T252 441Q253 441 260 441T272 442Q296 441 316 432Q341 418 354 401T367 348V332L318 133Q267 -67 264 -75Q246 -125 194 -164T75 -204Q25 -204 7 -183T-12 -137Q-12 -110 7 -91T53 -71Q70 -71 82 -81T95 -112Q95 -148 63 -167Q69 -168 77 -168Q111 -168 139 -140T182 -74L193 -32Q204 11 219 72T251 197T278 308T289 365Q289 372 288 376Z"></path>
<path stroke-width="1" id="E1-MJMATHI-47" d="M50 252Q50 367 117 473T286 641T490 704Q580 704 633 653Q642 643 648 636T656 626L657 623Q660 623 684 649Q691 655 699 663T715 679T725 690L740 705H746Q760 705 760 698Q760 694 728 561Q692 422 692 421Q690 416 687 415T669 413H653Q647 419 647 422Q647 423 648 429T650 449T651 481Q651 552 619 605T510 659Q492 659 471 656T418 643T357 615T294 567T236 496T189 394T158 260Q156 242 156 221Q156 173 170 136T206 79T256 45T308 28T353 24Q407 24 452 47T514 106Q517 114 529 161T541 214Q541 222 528 224T468 227H431Q425 233 425 235T427 254Q431 267 437 273H454Q494 271 594 271Q634 271 659 271T695 272T707 272Q721 272 721 263Q721 261 719 249Q714 230 709 228Q706 227 694 227Q674 227 653 224Q646 221 643 215T629 164Q620 131 614 108Q589 6 586 3Q584 1 581 1Q571 1 553 21T530 52Q530 53 528 52T522 47Q448 -22 322 -22Q201 -22 126 55T50 252Z"></path>
<path stroke-width="1" id="E1-MJMAIN-2B" d="M56 237T56 250T70 270H369V420L370 570Q380 583 389 583Q402 583 409 568V270H707Q722 262 722 250T707 230H409V-68Q401 -82 391 -82H389H387Q375 -82 369 -68V230H70Q56 237 56 250Z"></path>
<path stroke-width="1" id="E1-MJMAIN-2212" d="M84 237T84 250T98 270H679Q694 262 694 250T679 230H98Q84 237 84 250Z"></path>
<path stroke-width="1" id="E1-MJSZ4-28" d="M758 -1237T758 -1240T752 -1249H736Q718 -1249 717 -1248Q711 -1245 672 -1199Q237 -706 237 251T672 1700Q697 1730 716 1749Q718 1750 735 1750H752Q758 1744 758 1741Q758 1737 740 1713T689 1644T619 1537T540 1380T463 1176Q348 802 348 251Q348 -242 441 -599T744 -1218Q758 -1237 758 -1240Z"></path>
<path stroke-width="1" id="E1-MJSZ4-29" d="M33 1741Q33 1750 51 1750H60H65Q73 1750 81 1743T119 1700Q554 1207 554 251Q554 -707 119 -1199Q76 -1250 66 -1250Q65 -1250 62 -1250T56 -1249Q55 -1249 53 -1249T49 -1250Q33 -1250 33 -1239Q33 -1236 50 -1214T98 -1150T163 -1052T238 -910T311 -727Q443 -335 443 251Q443 402 436 532T405 831T339 1142T224 1438T50 1716Q33 1737 33 1741Z"></path>
</defs>
<g stroke="currentColor" fill="currentColor" stroke-width="0" transform="matrix(1 0 0 -1 0 0)">
<g transform="translate(17022,0)">
 <use xlink:href="#E1-MJMATHI-3C5" x="0" y="0"></use>
 <use transform="scale(0.707)" xlink:href="#E1-MJMATHI-6B" x="764" y="-213"></use>
<g transform="translate(1175,0)">
 <use xlink:href="#E1-MJMAIN-28" x="0" y="0"></use>
 <use xlink:href="#E1-MJMATHI-73" x="389" y="0"></use>
 <use xlink:href="#E1-MJMAIN-29" x="859" y="0"></use>
</g>
 <use xlink:href="#E1-MJMAIN-3D" x="2702" y="0"></use>
<g transform="translate(3480,0)">
<g transform="translate(397,0)">
<rect stroke="none" width="641" height="60" x="0" y="220"></rect>
 <use xlink:href="#E1-MJMAIN-31" x="70" y="676"></use>
 <use xlink:href="#E1-MJMATHI-6B" x="60" y="-715"></use>
</g>
</g>
<g transform="translate(4806,0)">
 <use xlink:href="#E1-MJSZ2-2211" x="0" y="0"></use>
<g transform="translate(124,-1090)">
 <use transform="scale(0.707)" xlink:href="#E1-MJMATHI-6A" x="0" y="0"></use>
 <use transform="scale(0.707)" xlink:href="#E1-MJMAIN-3D" x="412" y="0"></use>
 <use transform="scale(0.707)" xlink:href="#E1-MJMAIN-31" x="1191" y="0"></use>
</g>
 <use transform="scale(0.707)" xlink:href="#E1-MJMATHI-6B" x="760" y="1627"></use>
</g>
<g transform="translate(6417,0)">
 <use xlink:href="#E1-MJMATHI-47" x="0" y="0"></use>
 <use transform="scale(0.707)" xlink:href="#E1-MJMATHI-6A" x="1112" y="-213"></use>
</g>
<g transform="translate(7762,0)">
 <use xlink:href="#E1-MJMAIN-28" x="0" y="0"></use>
 <use xlink:href="#E1-MJMATHI-73" x="389" y="0"></use>
 <use xlink:href="#E1-MJMAIN-29" x="859" y="0"></use>
</g>
</g>
<g transform="translate(15370,-3516)">
 <use xlink:href="#E1-MJMAIN-3D" x="694" y="0"></use>
<g transform="translate(1472,0)">
<g transform="translate(397,0)">
<rect stroke="none" width="641" height="60" x="0" y="220"></rect>
 <use xlink:href="#E1-MJMAIN-31" x="70" y="676"></use>
 <use xlink:href="#E1-MJMATHI-6B" x="60" y="-715"></use>
</g>
</g>
<g transform="translate(2632,0)">
 <use xlink:href="#E1-MJSZ4-28"></use>
<g transform="translate(792,0)">
 <use xlink:href="#E1-MJMATHI-47" x="0" y="0"></use>
 <use transform="scale(0.707)" xlink:href="#E1-MJMATHI-6B" x="1112" y="-213"></use>
<g transform="translate(1421,0)">
 <use xlink:href="#E1-MJMAIN-28" x="0" y="0"></use>
 <use xlink:href="#E1-MJMATHI-73" x="389" y="0"></use>
 <use xlink:href="#E1-MJMAIN-29" x="859" y="0"></use>
</g>
 <use xlink:href="#E1-MJMAIN-2B" x="2892" y="0"></use>
<g transform="translate(3893,0)">
 <use xlink:href="#E1-MJSZ2-2211" x="0" y="0"></use>
<g transform="translate(124,-1090)">
 <use transform="scale(0.707)" xlink:href="#E1-MJMATHI-6A" x="0" y="0"></use>
 <use transform="scale(0.707)" xlink:href="#E1-MJMAIN-3D" x="412" y="0"></use>
 <use transform="scale(0.707)" xlink:href="#E1-MJMAIN-31" x="1191" y="0"></use>
</g>
<g transform="translate(85,1151)">
 <use transform="scale(0.707)" xlink:href="#E1-MJMATHI-6B" x="0" y="0"></use>
 <use transform="scale(0.707)" xlink:href="#E1-MJMAIN-2212" x="521" y="0"></use>
 <use transform="scale(0.707)" xlink:href="#E1-MJMAIN-31" x="1300" y="0"></use>
</g>
</g>
<g transform="translate(5504,0)">
 <use xlink:href="#E1-MJMATHI-47" x="0" y="0"></use>
 <use transform="scale(0.707)" xlink:href="#E1-MJMATHI-6A" x="1112" y="-213"></use>
</g>
<g transform="translate(6849,0)">
 <use xlink:href="#E1-MJMAIN-28" x="0" y="0"></use>
 <use xlink:href="#E1-MJMATHI-73" x="389" y="0"></use>
 <use xlink:href="#E1-MJMAIN-29" x="859" y="0"></use>
</g>
</g>
 <use xlink:href="#E1-MJSZ4-29" x="8890" y="0"></use>
</g>
</g>
<g transform="translate(14824,-6625)">
 <use xlink:href="#E1-MJMAIN-3D" x="277" y="0"></use>
<g transform="translate(1056,0)">
<g transform="translate(397,0)">
<rect stroke="none" width="641" height="60" x="0" y="220"></rect>
 <use xlink:href="#E1-MJMAIN-31" x="70" y="676"></use>
 <use xlink:href="#E1-MJMATHI-6B" x="60" y="-715"></use>
</g>
</g>
<g transform="translate(2215,0)">
 <use xlink:href="#E1-MJMAIN-28" x="0" y="0"></use>
<g transform="translate(389,0)">
 <use xlink:href="#E1-MJMATHI-47" x="0" y="0"></use>
 <use transform="scale(0.707)" xlink:href="#E1-MJMATHI-6B" x="1112" y="-213"></use>
<g transform="translate(1421,0)">
 <use xlink:href="#E1-MJMAIN-28" x="0" y="0"></use>
 <use xlink:href="#E1-MJMATHI-73" x="389" y="0"></use>
 <use xlink:href="#E1-MJMAIN-29" x="859" y="0"></use>
</g>
 <use xlink:href="#E1-MJMAIN-2B" x="2892" y="0"></use>
<g transform="translate(3893,0)">
 <use xlink:href="#E1-MJMAIN-28" x="0" y="0"></use>
<g transform="translate(389,0)">
 <use xlink:href="#E1-MJMATHI-6B" x="0" y="0"></use>
 <use xlink:href="#E1-MJMAIN-2212" x="743" y="0"></use>
 <use xlink:href="#E1-MJMAIN-31" x="1744" y="0"></use>
</g>
 <use xlink:href="#E1-MJMAIN-29" x="2634" y="0"></use>
</g>
<g transform="translate(7083,0)">
 <use xlink:href="#E1-MJMATHI-3C5" x="0" y="0"></use>
<g transform="translate(540,-150)">
 <use transform="scale(0.707)" xlink:href="#E1-MJMATHI-6B" x="0" y="0"></use>
 <use transform="scale(0.707)" xlink:href="#E1-MJMAIN-2212" x="521" y="0"></use>
 <use transform="scale(0.707)" xlink:href="#E1-MJMAIN-31" x="1300" y="0"></use>
</g>
</g>
<g transform="translate(9164,0)">
 <use xlink:href="#E1-MJMAIN-28" x="0" y="0"></use>
 <use xlink:href="#E1-MJMATHI-73" x="389" y="0"></use>
 <use xlink:href="#E1-MJMAIN-29" x="859" y="0"></use>
</g>
</g>
 <use xlink:href="#E1-MJMAIN-29" x="10802" y="0"></use>
</g>
</g>
<g transform="translate(14143,-9125)">
 <use xlink:href="#E1-MJMAIN-3D" x="277" y="0"></use>
<g transform="translate(1334,0)">
 <use xlink:href="#E1-MJMATHI-3C5" x="0" y="0"></use>
<g transform="translate(540,-150)">
 <use transform="scale(0.707)" xlink:href="#E1-MJMATHI-6B" x="0" y="0"></use>
 <use transform="scale(0.707)" xlink:href="#E1-MJMAIN-2212" x="521" y="0"></use>
 <use transform="scale(0.707)" xlink:href="#E1-MJMAIN-31" x="1300" y="0"></use>
</g>
</g>
<g transform="translate(3414,0)">
 <use xlink:href="#E1-MJMAIN-28" x="0" y="0"></use>
 <use xlink:href="#E1-MJMATHI-73" x="389" y="0"></use>
 <use xlink:href="#E1-MJMAIN-29" x="859" y="0"></use>
</g>
 <use xlink:href="#E1-MJMAIN-2B" x="4885" y="0"></use>
<g transform="translate(5663,0)">
<g transform="translate(342,0)">
<rect stroke="none" width="641" height="60" x="0" y="220"></rect>
 <use xlink:href="#E1-MJMAIN-31" x="70" y="676"></use>
 <use xlink:href="#E1-MJMATHI-6B" x="60" y="-715"></use>
</g>
</g>
<g transform="translate(6767,0)">
 <use xlink:href="#E1-MJMAIN-28" x="0" y="0"></use>
<g transform="translate(389,0)">
 <use xlink:href="#E1-MJMATHI-47" x="0" y="0"></use>
 <use transform="scale(0.707)" xlink:href="#E1-MJMATHI-6B" x="1112" y="-213"></use>
<g transform="translate(1421,0)">
 <use xlink:href="#E1-MJMAIN-28" x="0" y="0"></use>
 <use xlink:href="#E1-MJMATHI-73" x="389" y="0"></use>
 <use xlink:href="#E1-MJMAIN-29" x="859" y="0"></use>
</g>
 <use xlink:href="#E1-MJMAIN-2212" x="2892" y="0"></use>
<g transform="translate(3893,0)">
 <use xlink:href="#E1-MJMATHI-3C5" x="0" y="0"></use>
<g transform="translate(540,-150)">
 <use transform="scale(0.707)" xlink:href="#E1-MJMATHI-6B" x="0" y="0"></use>
 <use transform="scale(0.707)" xlink:href="#E1-MJMAIN-2212" x="521" y="0"></use>
 <use transform="scale(0.707)" xlink:href="#E1-MJMAIN-31" x="1300" y="0"></use>
</g>
</g>
<g transform="translate(5973,0)">
 <use xlink:href="#E1-MJMAIN-28" x="0" y="0"></use>
 <use xlink:href="#E1-MJMATHI-73" x="389" y="0"></use>
 <use xlink:href="#E1-MJMAIN-29" x="859" y="0"></use>
</g>
</g>
 <use xlink:href="#E1-MJMAIN-29" x="7611" y="0"></use>
</g>
</g>
</g>
</svg>